<svg width="360" height="76" viewBox="0 0 360 76" fill="none" xmlns="http://www.w3.org/2000/svg">
<g clip-path="url(#clip0)">
<path d="M154.522 33.514L149.306 58.7969H135.718L140.934 33.514C141.343 31.5268 141.106 31.1605 139.18 31.1605H134.275C132.362 31.1605 131.961 31.5268 131.556 33.4635C131.556 33.4635 131.556 33.4972 131.556 33.514L126.34 58.7969H112.74L117.96 33.514C118.369 31.5268 118.132 31.1605 116.202 31.1605H111.297C109.367 31.1605 108.979 31.531 108.57 33.514L103.35 58.7969H89.7619L97.77 19.9864H108.807L110.557 23.3209C111.563 22.2295 112.782 21.3685 114.133 20.794C115.483 20.2195 116.937 19.9443 118.398 19.9864H121.214C126.528 19.9864 130.113 22.3652 131.397 26.386C133.772 21.9147 137.214 19.9864 141.371 19.9864H144.192C152.176 19.9864 156.235 25.2955 154.522 33.514Z" fill="white"/>
<path d="M195.961 33.514L193.537 45.2691C191.841 53.4876 185.586 58.7968 177.594 58.7968H167.301C159.321 58.7968 155.262 53.4834 156.959 45.2649L159.383 33.514C161.075 25.2955 167.33 19.9863 175.326 19.9863H185.635C193.598 19.9863 197.662 25.2955 195.961 33.514ZM182.361 33.514C182.77 31.5267 182.532 31.1605 180.607 31.1605H175.702C173.772 31.1605 173.384 31.531 172.975 33.514L170.547 45.2649C170.138 47.2522 170.379 47.6185 172.305 47.6185H177.21C179.135 47.6185 179.528 47.248 179.937 45.2649L182.361 33.514Z" fill="white"/>
<path d="M280.764 30.4236C280.267 32.6299 279.067 34.6012 277.355 36.0233L270.434 41.9177C268.775 43.3549 266.687 44.1633 264.519 44.2082H254.937L254.721 45.2481C254.312 47.2354 254.549 47.6016 256.478 47.6016H277.212L274.907 58.78H251.458C243.479 58.78 239.42 53.4666 241.116 45.2481L243.54 33.4972C245.237 25.2787 251.491 19.9695 259.483 19.9695H269.801C277.76 19.9863 281.876 25.0176 280.764 30.4236ZM266.53 33.514C266.939 31.5267 266.702 31.1604 264.773 31.1604H259.867C257.946 31.1562 257.537 31.531 257.128 33.514L256.311 37.5601H264.405C264.768 37.5446 265.116 37.4075 265.396 37.1697C265.677 36.9318 265.874 36.6062 265.958 36.2423L266.53 33.514Z" fill="white"/>
<path d="M296.041 52.2078C295.289 55.8497 292.497 58.8011 288.274 58.8011C284.051 58.8011 282.481 55.8539 283.234 52.2078C283.986 48.5616 286.778 45.6187 291.001 45.6187C295.223 45.6187 296.781 48.5616 296.041 52.2078Z" fill="#4CD62B"/>
<path d="M325.196 19.9864L322.89 31.1563L317.167 58.7926H303.583L309.306 31.1563H302.524L304.834 19.9821L325.196 19.9864ZM315.107 12.7404C312.752 10.0459 313.472 5.42295 316.705 2.42101C319.939 -0.580931 324.472 -0.825128 326.839 1.87367C329.206 4.57247 328.474 9.19537 325.241 12.1973C322.007 15.1993 317.465 15.4434 315.107 12.7404Z" fill="white"/>
<path d="M347 25.5735L342.937 45.265C342.528 47.2523 342.765 47.6185 344.691 47.6185H353.141L350.835 58.7969H339.679C331.699 58.7969 327.636 53.4835 329.333 45.265L333.396 25.5735H328.257L330.563 14.3951H335.714L337.602 5.24194H351.203L349.314 14.3951H360.008L357.69 25.5735H347Z" fill="white"/>
<path d="M36.7338 5.69238H53.9765L39.6321 76.0001H22.3894L36.7338 5.69238Z" fill="white"/>
<path d="M62.0337 5.69238H79.2764L68.1001 60.7799H50.8533L62.0337 5.69238Z" fill="white"/>
<path d="M11.1804 5.69238H28.4231L17.2468 60.7799H0L11.1804 5.69238Z" fill="white"/>
<path d="M246.279 19.9863L221.085 58.7968H207.187L197.997 19.9863H212.881L216.883 45.4712L231.395 20.0074L246.279 19.9863Z" fill="white"/>
</g>
<defs>
<clipPath id="clip0">
<rect width="360" height="76" fill="white"/>
</clipPath>
</defs>
</svg>
